<svg width="24" height="25" viewBox="0 0 24 25" fill="none" xmlns="http://www.w3.org/2000/svg">
<path d="M12.02 2.5708C17.7 2.5708 22 7.22779 22 12.5558C22 18.735 16.96 22.5708 12 22.5708C10.36 22.5708 8.54 22.1301 7.08 21.2688C6.57 20.9584 6.14 20.728 5.59 20.9083L3.57 21.5092C3.06 21.6694 2.6 21.2688 2.75 20.728L3.42 18.4847C3.53 18.1742 3.51 17.8437 3.35 17.5833C2.49 16.0009 2 14.2683 2 12.5858C2 7.31792 6.21 2.5708 12.02 2.5708ZM16.59 11.3139C15.88 11.3139 15.31 11.8848 15.31 12.5958C15.31 13.2969 15.88 13.8778 16.59 13.8778C17.3 13.8778 17.87 13.2969 17.87 12.5958C17.87 11.8848 17.3 11.3139 16.59 11.3139ZM11.98 11.3139C11.28 11.3039 10.7 11.8848 10.7 12.5858C10.7 13.2969 11.27 13.8677 11.98 13.8778C12.69 13.8778 13.26 13.2969 13.26 12.5958C13.26 11.8848 12.69 11.3139 11.98 11.3139ZM7.37 11.3139C6.66 11.3139 6.09 11.8848 6.09 12.5958C6.09 13.2969 6.67 13.8778 7.37 13.8778C8.08 13.8677 8.65 13.2969 8.65 12.5958C8.65 11.8848 8.08 11.3139 7.37 11.3139Z" fill="#16858D"/>
</svg>
