<svg width="25" height="25" viewBox="0 0 25 25" fill="none" xmlns="http://www.w3.org/2000/svg">
<path d="M18.2712 14.8909C18.0122 15.1419 17.8932 15.5049 17.9522 15.8609L18.8412 20.7809C18.9162 21.1979 18.7402 21.6199 18.3912 21.8609C18.0492 22.1109 17.5942 22.1409 17.2212 21.9409L12.7922 19.6309C12.6382 19.5489 12.4672 19.5049 12.2922 19.4999H12.0212C11.9272 19.5139 11.8352 19.5439 11.7512 19.5899L7.32117 21.9109C7.10217 22.0209 6.85417 22.0599 6.61117 22.0209C6.01917 21.9089 5.62417 21.3449 5.72117 20.7499L6.61117 15.8299C6.67017 15.4709 6.55117 15.1059 6.29217 14.8509L2.68117 11.3509C2.37917 11.0579 2.27417 10.6179 2.41217 10.2209C2.54617 9.82492 2.88817 9.53592 3.30117 9.47092L8.27117 8.74992C8.64917 8.71092 8.98117 8.48092 9.15117 8.14092L11.3412 3.65092C11.3932 3.55092 11.4602 3.45892 11.5412 3.38092L11.6312 3.31092C11.6782 3.25892 11.7322 3.21592 11.7922 3.18092L11.9012 3.14092L12.0712 3.07092H12.4922C12.8682 3.10992 13.1992 3.33492 13.3722 3.67092L15.5912 8.14092C15.7512 8.46792 16.0622 8.69492 16.4212 8.74992L21.3912 9.47092C21.8112 9.53092 22.1622 9.82092 22.3012 10.2209C22.4322 10.6219 22.3192 11.0619 22.0112 11.3509L18.2712 14.8909Z" fill="#16858D"/>
</svg>
