<svg width="15" height="14" viewBox="0 0 15 14" fill="none" xmlns="http://www.w3.org/2000/svg">
<g clip-path="url(#clip0_303_1007)">
<path fill-rule="evenodd" clip-rule="evenodd" d="M0.00292969 3.68426H0.739727V1.25542L5.1286 5.64429L5.64953 5.12323L1.26321 0.736797H3.68719V0H0.00292969V3.68426ZM14.003 3.68426H13.2662V1.25989L8.87981 5.64625L8.35889 5.12519L12.7473 0.736797H10.3188V0H14.003V3.68426ZM3.68719 13.9996H0.00292969V10.3154H0.739727V12.7397L5.12299 8.35645L5.64405 8.87751L1.2588 13.2628H3.68719V13.9996ZM14.003 13.9996H10.3188V13.2628H12.742L8.35962 8.88043L8.88068 8.35938L13.2662 12.7449V10.3154H14.003V13.9996Z" fill="#16858D"/>
</g>
<defs>
<clipPath id="clip0_303_1007">
<rect width="14" height="14" fill="white" transform="translate(0.00292969)"/>
</clipPath>
</defs>
</svg>
