<svg width="25" height="25" viewBox="0 0 25 25" fill="none" xmlns="http://www.w3.org/2000/svg">
<path fill-rule="evenodd" clip-rule="evenodd" d="M17.5979 13.9077C19.3139 13.9077 20.7099 15.2967 20.7099 17.0037C20.7099 18.7107 19.3139 20.0997 17.5979 20.0997C15.8809 20.0997 14.4839 18.7107 14.4839 17.0037C14.4839 15.2967 15.8809 13.9077 17.5979 13.9077ZM17.5979 15.4077C16.7079 15.4077 15.9839 16.1237 15.9839 17.0037C15.9839 17.8847 16.7079 18.5997 17.5979 18.5997C18.4869 18.5997 19.2099 17.8847 19.2099 17.0037C19.2099 16.1237 18.4869 15.4077 17.5979 15.4077ZM10.2903 16.2925C10.7043 16.2925 11.0403 16.6285 11.0403 17.0425C11.0403 17.4565 10.7043 17.7925 10.2903 17.7925H3.98926C3.57526 17.7925 3.23926 17.4565 3.23926 17.0425C3.23926 16.6285 3.57526 16.2925 3.98926 16.2925H10.2903ZM6.32296 4.19971C8.03996 4.19971 9.43596 5.58971 9.43596 7.29671C9.43596 9.00371 8.03996 10.3917 6.32296 10.3917C4.60696 10.3917 3.20996 9.00371 3.20996 7.29671C3.20996 5.58971 4.60696 4.19971 6.32296 4.19971ZM6.32296 5.69971C5.43396 5.69971 4.70996 6.41571 4.70996 7.29671C4.70996 8.17671 5.43396 8.89171 6.32296 8.89171C7.21296 8.89171 7.93596 8.17671 7.93596 7.29671C7.93596 6.41571 7.21296 5.69971 6.32296 5.69971ZM19.4011 6.60011C19.8151 6.60011 20.1511 6.93611 20.1511 7.35011C20.1511 7.76411 19.8151 8.10011 19.4011 8.10011H13.1011C12.6871 8.10011 12.3511 7.76411 12.3511 7.35011C12.3511 6.93611 12.6871 6.60011 13.1011 6.60011H19.4011Z" fill="#16858D"/>
</svg>
