<svg width="24" height="25" viewBox="0 0 24 25" fill="none" xmlns="http://www.w3.org/2000/svg">
<path d="M7.91988 14.0405C9.32988 14.0405 10.4599 15.1815 10.4599 16.6015V20.0105C10.4599 21.4205 9.32988 22.5705 7.91988 22.5705H4.53988C3.13988 22.5705 1.99988 21.4205 1.99988 20.0105V16.6015C1.99988 15.1815 3.13988 14.0405 4.53988 14.0405H7.91988ZM19.46 14.0405C20.86 14.0405 22 15.1815 22 16.6015V20.0105C22 21.4205 20.86 22.5705 19.46 22.5705H16.08C14.67 22.5705 13.54 21.4205 13.54 20.0105V16.6015C13.54 15.1815 14.67 14.0405 16.08 14.0405H19.46ZM7.91988 2.5708C9.32988 2.5708 10.4599 3.7208 10.4599 5.1318V8.5408C10.4599 9.9608 9.32988 11.1008 7.91988 11.1008H4.53988C3.13988 11.1008 1.99988 9.9608 1.99988 8.5408V5.1318C1.99988 3.7208 3.13988 2.5708 4.53988 2.5708H7.91988ZM19.46 2.5708C20.86 2.5708 22 3.7208 22 5.1318V8.5408C22 9.9608 20.86 11.1008 19.46 11.1008H16.08C14.67 11.1008 13.54 9.9608 13.54 8.5408V5.1318C13.54 3.7208 14.67 2.5708 16.08 2.5708H19.46Z" fill="#16858D"/>
</svg>
