<svg width="25" height="25" viewBox="0 0 25 25" fill="none" xmlns="http://www.w3.org/2000/svg">
<path d="M16.5435 2.57086C19.6325 2.57086 21.3525 4.35086 21.3525 7.40086V17.7309C21.3525 20.8309 19.6325 22.5709 16.5435 22.5709H8.16254C5.12254 22.5709 3.35254 20.8309 3.35254 17.7309V7.40086C3.35254 4.35086 5.12254 2.57086 8.16254 2.57086H16.5435ZM8.43254 16.3109C8.13254 16.2809 7.84254 16.4209 7.68254 16.6809C7.52254 16.9309 7.52254 17.2609 7.68254 17.5209C7.84254 17.7709 8.13254 17.9209 8.43254 17.8809H16.2725C16.6715 17.8409 16.9725 17.4999 16.9725 17.1009C16.9725 16.6909 16.6715 16.3509 16.2725 16.3109H8.43254ZM16.2725 11.7499H8.43254C8.00154 11.7499 7.65254 12.1009 7.65254 12.5309C7.65254 12.9609 8.00154 13.3109 8.43254 13.3109H16.2725C16.7025 13.3109 17.0525 12.9609 17.0525 12.5309C17.0525 12.1009 16.7025 11.7499 16.2725 11.7499ZM11.4215 7.22086H8.43254V7.23086C8.00154 7.23086 7.65254 7.58086 7.65254 8.01086C7.65254 8.44086 8.00154 8.79086 8.43254 8.79086H11.4215C11.8525 8.79086 12.2025 8.44086 12.2025 7.99986C12.2025 7.57086 11.8525 7.22086 11.4215 7.22086Z" fill="#16858D"/>
</svg>
