<svg width="25" height="25" viewBox="0 0 25 25" fill="none" xmlns="http://www.w3.org/2000/svg">
<path fill-rule="evenodd" clip-rule="evenodd" d="M12.5288 2.80029C17.8988 2.80029 22.2668 7.16829 22.2668 12.5383C22.2668 15.0718 21.2945 17.3826 19.7035 19.1168L22.8342 22.241C23.1272 22.534 23.1282 23.008 22.8352 23.301C22.6892 23.449 22.4962 23.522 22.3042 23.522C22.1132 23.522 21.9212 23.449 21.7742 23.303L18.6057 20.1433C16.9389 21.4781 14.8255 22.2773 12.5288 22.2773C7.15883 22.2773 2.78983 17.9083 2.78983 12.5383C2.78983 7.16829 7.15883 2.80029 12.5288 2.80029ZM12.5288 4.30029C7.98583 4.30029 4.28983 7.99529 4.28983 12.5383C4.28983 17.0813 7.98583 20.7773 12.5288 20.7773C17.0708 20.7773 20.7668 17.0813 20.7668 12.5383C20.7668 7.99529 17.0708 4.30029 12.5288 4.30029Z" fill="#666666"/>
</svg>
