<svg width="24" height="25" viewBox="0 0 24 25" fill="none" xmlns="http://www.w3.org/2000/svg">
<path d="M12.7171 2.57092C13.4734 2.57092 14.1581 2.99092 14.5362 3.61092C14.7201 3.91092 14.8428 4.28092 14.8121 4.67092C14.7917 4.97092 14.8837 5.27092 15.0472 5.55092C15.5684 6.40092 16.7232 6.72092 17.6225 6.24092C18.6342 5.66092 19.9117 6.01092 20.4942 7.00092L21.1789 8.18092C21.7716 9.17092 21.4446 10.4409 20.4227 11.0109C19.554 11.5209 19.2474 12.6509 19.7686 13.5109C19.9321 13.7809 20.1161 14.0109 20.4022 14.1509C20.7599 14.3409 21.0358 14.6409 21.23 14.9409C21.6081 15.5609 21.5775 16.3209 21.2096 16.9909L20.4942 18.1909C20.1161 18.8309 19.4109 19.2309 18.6853 19.2309C18.3277 19.2309 17.9291 19.1309 17.6021 18.9309C17.3364 18.7609 17.0298 18.7009 16.7027 18.7009C15.691 18.7009 14.8428 19.5309 14.8121 20.5209C14.8121 21.6709 13.8719 22.5709 12.6967 22.5709H11.3068C10.1213 22.5709 9.18113 21.6709 9.18113 20.5209C9.16069 19.5309 8.31247 18.7009 7.30073 18.7009C6.96348 18.7009 6.6569 18.7609 6.40141 18.9309C6.07438 19.1309 5.6656 19.2309 5.31813 19.2309C4.58232 19.2309 3.87717 18.8309 3.49905 18.1909L2.7939 16.9909C2.41577 16.3409 2.39533 15.5609 2.77346 14.9409C2.93697 14.6409 3.24356 14.3409 3.59102 14.1509C3.87717 14.0109 4.06112 13.7809 4.23486 13.5109C4.74584 12.6509 4.43925 11.5209 3.57059 11.0109C2.55885 10.4409 2.23182 9.17092 2.81434 8.18092L3.49905 7.00092C4.09178 6.01092 5.35901 5.66092 6.38097 6.24092C7.27007 6.72092 8.42488 6.40092 8.94608 5.55092C9.10959 5.27092 9.20157 4.97092 9.18113 4.67092C9.16069 4.28092 9.27311 3.91092 9.46728 3.61092C9.8454 2.99092 10.5301 2.59092 11.2761 2.57092H12.7171ZM12.012 9.75092C10.4075 9.75092 9.10959 11.0109 9.10959 12.5809C9.10959 14.1509 10.4075 15.4009 12.012 15.4009C13.6164 15.4009 14.8837 14.1509 14.8837 12.5809C14.8837 11.0109 13.6164 9.75092 12.012 9.75092Z" fill="#16858D"/>
</svg>
