<svg width="20" height="20" viewBox="0 0 20 20" fill="none" xmlns="http://www.w3.org/2000/svg">
<path d="M14.9322 11.9334C14.7163 12.1425 14.6172 12.445 14.6663 12.7417L15.4072 16.8417C15.4697 17.1892 15.323 17.5409 15.0322 17.7417C14.7472 17.95 14.368 17.975 14.0572 17.8084L10.3663 15.8834C10.238 15.815 10.0955 15.7784 9.94967 15.7742H9.72384C9.64551 15.7859 9.56884 15.8109 9.49884 15.8492L5.80717 17.7834C5.62467 17.875 5.41801 17.9075 5.21551 17.875C4.72217 17.7817 4.39301 17.3117 4.47384 16.8159L5.21551 12.7159C5.26467 12.4167 5.16551 12.1125 4.94967 11.9L1.94051 8.98337C1.68884 8.73921 1.60134 8.37254 1.71634 8.04171C1.82801 7.71171 2.11301 7.47087 2.45717 7.41671L6.59884 6.81587C6.91384 6.78337 7.19051 6.59171 7.33217 6.30837L9.15717 2.56671C9.20051 2.48337 9.25634 2.40671 9.32384 2.34171L9.39884 2.28337C9.43801 2.24004 9.48301 2.20421 9.53301 2.17504L9.62384 2.14171L9.76551 2.08337H10.1163C10.4297 2.11587 10.7055 2.30337 10.8497 2.58337L12.6988 6.30837C12.8322 6.58087 13.0913 6.77004 13.3905 6.81587L17.5322 7.41671C17.8822 7.46671 18.1747 7.70837 18.2905 8.04171C18.3997 8.37587 18.3055 8.74254 18.0488 8.98337L14.9322 11.9334Z" fill="#FFBF53"/>
</svg>
