<svg width="15" height="14" viewBox="0 0 15 14" fill="none" xmlns="http://www.w3.org/2000/svg">
<path d="M8.83496 6.46338C9.82628 5.8459 10.4874 4.74628 10.4874 3.49487C10.4874 1.56778 8.91966 0 6.99257 0C5.06548 0 3.4977 1.56778 3.4977 3.49487C3.4977 4.74628 4.15886 5.84579 5.15007 6.46327C3.04417 7.22067 1.53418 9.23781 1.53418 11.6012V13.5766C1.53418 13.8104 1.72377 14 1.95758 14H12.0273C12.2612 14 12.4506 13.8104 12.4506 13.5766V11.6012C12.4506 9.23792 10.9408 7.22089 8.83496 6.46338ZM11.6039 13.1532H2.38098V11.6012C2.38098 9.05847 4.4496 6.98985 6.99246 6.98985C9.53522 6.98985 11.6039 9.05847 11.6039 11.6012V13.1532ZM9.64064 3.49487C9.64064 4.95509 8.45279 6.14305 6.99257 6.14305C5.53235 6.14305 4.3445 4.95509 4.3445 3.49487C4.3445 2.03476 5.53235 0.846802 6.99257 0.846802C8.45279 0.846802 9.64064 2.03476 9.64064 3.49487Z" fill="#16858D"/>
</svg>
